<?xml version="1.0" encoding="UTF-8"?>
<svg xmlns="http://www.w3.org/2000/svg" version="1.1" viewBox="0 0 448 512">
  <defs>
    <style>
      .cls-1 {
        fill: #ffd000;
      }
    </style>
  </defs>
  <!-- Generator: Adobe Illustrator 28.6.0, SVG Export Plug-In . SVG Version: 1.2.0 Build 709)  -->
  <g>
    <g id="Layer_1">
      <path class="cls-1" d="M194.4,211.7c-24.5,16.4-31.1,49.5-14.7,74,16.4,24.5,49.5,31.1,74,14.7h0c24.5-16.4,31.1-49.5,14.7-74s-49.5-31.1-74-14.7ZM336.7,143.3c-5.2-5.2-11.5-9.3-18.4-12-18.1-7.1-57.6-6.8-83.1-6.5-4.1,0-7.9,0-11.2,0s-7.2,0-11.4,0c-25.5-.3-64.8-.7-82.9,6.5-6.9,2.7-13.1,6.8-18.4,12s-9.3,11.5-12,18.4c-7.1,18.1-6.7,57.7-6.5,83.2,0,4.1,0,7.9,0,11.1s0,7,0,11.1c-.2,25.5-.6,65.1,6.5,83.2,2.7,6.9,6.8,13.1,12,18.4s11.5,9.3,18.4,12c18.1,7.1,57.6,6.8,83.1,6.5,4.1,0,7.9-.1,11.2-.1s7.2,0,11.4.1c25.5.3,64.8.7,82.9-6.5,6.9-2.7,13.1-6.8,18.4-12s9.3-11.5,12-18.4c7.2-18,6.8-57.4,6.5-83,0-4.2-.1-8.1-.1-11.4s0-7.1.1-11.4c.3-25.5.7-64.9-6.5-83h0c-2.7-6.9-6.8-13.1-12-18.4v.2ZM269.6,187.8c37.7,25.2,47.8,76.1,22.6,113.8-25.2,37.7-76.1,47.8-113.8,22.6-37.7-25.2-47.8-76.1-22.6-113.8s76.1-47.8,113.8-22.6h.1ZM298.8,186.5c-3.1-2.1-5.6-5.1-7.1-8.6s-1.8-7.3-1.1-11.1,2.6-7.1,5.2-9.8,6.1-4.5,9.8-5.2,7.6-.4,11.1,1.1,6.5,3.9,8.6,7,3.2,6.8,3.2,10.6-.5,5-1.4,7.3-2.4,4.4-4.1,6.2-3.9,3.2-6.2,4.2-4.8,1.5-7.3,1.5h0c-3.8,0-7.5-1.1-10.6-3.2h-.1ZM448,96c0-35.3-28.7-64-64-64H64C28.7,32,0,60.7,0,96v320c0,35.3,28.7,64,64,64h320c35.3,0,64-28.7,64-64V96ZM357,389c-18.7,18.7-41.4,24.6-67,25.9-26.4,1.5-105.6,1.5-132,0-25.6-1.3-48.3-7.2-67-25.9s-24.6-41.4-25.8-67c-1.5-26.4-1.5-105.6,0-132,1.3-25.6,7.1-48.3,25.8-67s41.5-24.6,67-25.8c26.4-1.5,105.6-1.5,132,0,25.6,1.3,48.3,7.1,67,25.8,18.7,18.7,24.6,41.4,25.8,67,1.5,26.3,1.5,105.4,0,131.9-1.3,25.6-7.1,48.3-25.8,67h0Z"/>
    </g>
  </g>
</svg>